<svg width="32" height="32" viewBox="0 0 32 32" fill="none" xmlns="http://www.w3.org/2000/svg">
<rect width="32" height="32" fill="#E5E5E5"/>
<rect width="1440" height="6256" transform="translate(-647 -5467)" fill="white"/>
<rect x="-647" y="-269" width="1440" height="414" fill="black"/>
<path d="M-4 9C-4 1.26801 2.26801 -5 10 -5H136C143.732 -5 150 1.26801 150 9V23C150 30.732 143.732 37 136 37H10C2.26801 37 -4 30.732 -4 23V9Z" fill="white"/>
<g clip-path="url(#clip0_0_1)">
<path d="M16 5.51367C21.7914 5.51367 26.4861 10.2083 26.4861 15.9998C26.4861 21.7913 21.7914 26.4859 16 26.4859C10.2085 26.4859 5.51385 21.7913 5.51385 15.9998C5.51385 10.2083 10.2085 5.51367 16 5.51367Z" stroke="black" stroke-width="12.5833" stroke-linecap="round" stroke-linejoin="round"/>
<path d="M18.4222 11.8052L24.4413 22.2284" stroke="black" stroke-width="12.5833" stroke-linecap="round" stroke-linejoin="round"/>
<path d="M13.5777 11.8052H25.6158" stroke="black" stroke-width="12.5833" stroke-linecap="round" stroke-linejoin="round"/>
<path d="M11.1554 15.9999L17.1744 5.57666" stroke="black" stroke-width="12.5833" stroke-linecap="round" stroke-linejoin="round"/>
<path d="M13.5777 20.1942L7.55865 9.771" stroke="black" stroke-width="12.5833" stroke-linecap="round" stroke-linejoin="round"/>
<path d="M18.4223 20.1943H6.38422" stroke="black" stroke-width="12.5833" stroke-linecap="round" stroke-linejoin="round"/>
<path d="M20.8445 16L14.8255 26.4232" stroke="black" stroke-width="12.5833" stroke-linecap="round" stroke-linejoin="round"/>
</g>
<defs>
<clipPath id="clip0_0_1">
<rect width="32" height="32" fill="white"/>
</clipPath>
</defs>
</svg>
